<svg xmlns="http://www.w3.org/2000/svg" width="213.178" height="213.176" viewBox="0 0 56.403 56.403"><path fill="#5c2d91" d="M28.201 0a28.202 28.202 0 0 0-8.662 1.399l6.255 6.255a5.822 5.822 0 0 1 5.983 1.36c1.632 1.632 2.06 3.962 1.36 5.983l8.352 8.352c2.02-.7 4.35-.233 5.983 1.36a5.768 5.768 0 0 1 0 8.158 5.768 5.768 0 0 1-8.159 0c-1.709-1.71-2.097-4.196-1.242-6.294l-7.848-7.77v20.513c.544.272 1.087.621 1.515 1.087a5.769 5.769 0 1 1-8.159 0 5.569 5.569 0 0 1 1.904-1.243V18.454c-.7-.272-1.32-.7-1.904-1.243a5.773 5.773 0 0 1-1.242-6.333L14.848 3.39A28.202 28.202 0 0 0 0 28.201c0 15.576 12.626 28.202 28.201 28.202a28.202 28.202 0 1 0 0-56.403"/><path fill="#fff" d="M8.658 7.935A28.202 28.202 0 0 0 0 28.201a28.202 28.202 0 0 0 3.251 13.104 30.558 30.558 0 0 0 5.24 6.988 27.239 27.239 0 0 0 3.925 3.247 27.978 27.978 0 0 0 2.79 1.677c.135.072.271.14.408.21A28.202 28.202 0 0 0 28.2 56.402a28.202 28.202 0 0 0 19.868-8.215c.135-.145.27-.29.402-.44L30.223 29.5v9.816c.544.272 1.087.621 1.515 1.087a5.769 5.769 0 1 1-8.159 0 5.569 5.569 0 0 1 1.904-1.243v-14.4L8.658 7.935" opacity=".1"/></svg>
